<?xml version="1.0" encoding="utf-8"?>
<!-- Generator: Adobe Illustrator 28.0.0, SVG Export Plug-In . SVG Version: 6.00 Build 0)  -->
<svg version="1.1" id="Layer_1" xmlns="http://www.w3.org/2000/svg" xmlns:xlink="http://www.w3.org/1999/xlink" x="0px" y="0px"
	 viewBox="0 0 256 256" style="enable-background:new 0 0 256 256;" xml:space="preserve">
<style type="text/css">
	.st0{fill:rgba(0,0,0,0);}
	.st1{fill:url(#SVGID_1_);}
	.st2{fill:url(#SVGID_00000013908006376191914000000018041811050594707607_);}
	.st3{fill:url(#SVGID_00000133493207398182652650000017855257762878651312_);}
	.st4{fill:#842123;}
	.st5{fill:url(#SVGID_00000101807035155851592380000010496770738989587596_);}
	.st6{fill:url(#SVGID_00000012461830951679732980000001669343200432020118_);}
	.st7{fill:#BBCFDA;}
	.st8{fill:#FFFFFF;}
	.st9{fill:url(#SVGID_00000160913107209576497320000002449645359131766668_);}
	.st10{fill:url(#SVGID_00000023252739715609586110000012921048439638719124_);}
	.st11{fill:url(#SVGID_00000158736771071928287240000003061846039748867207_);}
	.st12{fill:#FF6101;}
	.st13{fill:#FFC49C;}
</style>
<rect class="st0" width="256" height="256"/>
<g>
	
		<radialGradient id="SVGID_1_" cx="1398.1552" cy="1.811" r="127.45" fx="1398.1552" fy="-7.319" gradientTransform="matrix(0.47 0 0 -0.41 -457.82 108.3)" gradientUnits="userSpaceOnUse">
		<stop  offset="0" style="stop-color:#FEFFFF"/>
		<stop  offset="0.4" style="stop-color:#FEFFFF"/>
		<stop  offset="0.51" style="stop-color:#F9FCFC"/>
		<stop  offset="0.62" style="stop-color:#EDF3F5"/>
		<stop  offset="0.7" style="stop-color:#DEE9EC"/>
		<stop  offset="0.72" style="stop-color:#D8E4E8"/>
		<stop  offset="0.76" style="stop-color:#CCD8DF"/>
		<stop  offset="0.8" style="stop-color:#C8D5DD"/>
		<stop  offset="0.83" style="stop-color:#CCD6DE"/>
		<stop  offset="0.85" style="stop-color:#D8DBE2"/>
		<stop  offset="0.88" style="stop-color:#EDE3E9"/>
		<stop  offset="0.9" style="stop-color:#FFEBEF"/>
	</radialGradient>
	<circle class="st1" cx="200.6" cy="123.7" r="29.9"/>
	
		<radialGradient id="SVGID_00000034073163968956867740000008452879218124006305_" cx="1089.3892" cy="1.811" r="127.45" fx="1089.3892" fy="-7.319" gradientTransform="matrix(0.47 0 0 -0.41 -457.82 108.3)" gradientUnits="userSpaceOnUse">
		<stop  offset="0" style="stop-color:#FEFFFF"/>
		<stop  offset="0.4" style="stop-color:#FEFFFF"/>
		<stop  offset="0.51" style="stop-color:#F9FCFC"/>
		<stop  offset="0.62" style="stop-color:#EDF3F5"/>
		<stop  offset="0.7" style="stop-color:#DEE9EC"/>
		<stop  offset="0.72" style="stop-color:#D8E4E8"/>
		<stop  offset="0.76" style="stop-color:#CCD8DF"/>
		<stop  offset="0.8" style="stop-color:#C8D5DD"/>
		<stop  offset="0.83" style="stop-color:#CCD6DE"/>
		<stop  offset="0.85" style="stop-color:#D8DBE2"/>
		<stop  offset="0.88" style="stop-color:#EDE3E9"/>
		<stop  offset="0.9" style="stop-color:#FFEBEF"/>
	</radialGradient>
	<circle style="fill:url(#SVGID_00000034073163968956867740000008452879218124006305_);" cx="55.4" cy="123.7" r="29.9"/>
	
		<radialGradient id="SVGID_00000120517025620417944270000013944930190746270629_" cx="1247.8051" cy="-224.6845" r="384.44" gradientTransform="matrix(0.47 0 0 -0.33 -457.82 25.03)" gradientUnits="userSpaceOnUse">
		<stop  offset="0" style="stop-color:#FEFFFF"/>
		<stop  offset="0.4" style="stop-color:#FEFFFF"/>
		<stop  offset="0.51" style="stop-color:#F9FCFC"/>
		<stop  offset="0.62" style="stop-color:#EDF3F5"/>
		<stop  offset="0.7" style="stop-color:#DEE9EC"/>
		<stop  offset="0.72" style="stop-color:#D8E4E8"/>
		<stop  offset="0.76" style="stop-color:#CCD8DF"/>
		<stop  offset="0.8" style="stop-color:#C8D5DD"/>
		<stop  offset="0.83" style="stop-color:#CCD6DE"/>
		<stop  offset="0.85" style="stop-color:#D8DBE2"/>
		<stop  offset="0.88" style="stop-color:#EDE3E9"/>
		<stop  offset="0.9" style="stop-color:#FFEBEF"/>
	</radialGradient>
	
		<ellipse style="fill:url(#SVGID_00000120517025620417944270000013944930190746270629_);" cx="128.1" cy="149.3" rx="85.3" ry="64"/>
	<path class="st4" d="M102.8,143.1c-0.5,10.8-7.7,14.8-16.1,14.8s-14.8-5.6-14.3-16.4s7.7-18,16.1-18S103.3,132.3,102.8,143.1z"/>
	<path class="st4" d="M183.6,141.5c0.5,10.8-5.9,16.4-14.3,16.4s-15.6-3.9-16.1-14.8c-0.5-10.8,5.9-19.6,14.3-19.6
		S183.1,130.6,183.6,141.5L183.6,141.5z"/>
	
		<radialGradient id="SVGID_00000061459207078496181010000007638701097681060527_" cx="-2540.135" cy="173.4222" r="32.12" gradientTransform="matrix(-0.47 0 0 0.69 -1026.88 31.31)" gradientUnits="userSpaceOnUse">
		<stop  offset="0" style="stop-color:#FF6600"/>
		<stop  offset="0.5" style="stop-color:#FF4500"/>
		<stop  offset="0.7" style="stop-color:#FC4301"/>
		<stop  offset="0.82" style="stop-color:#F43F07"/>
		<stop  offset="0.92" style="stop-color:#E53812"/>
		<stop  offset="1" style="stop-color:#D4301F"/>
	</radialGradient>
	<path style="fill:url(#SVGID_00000061459207078496181010000007638701097681060527_);" d="M153.3,144.1c0.5,10.1,7.2,13.8,15,13.8
		s13.8-5.5,13.4-15.7c-0.5-10.1-7.2-16.8-15-16.8S152.8,133.9,153.3,144.1z"/>
	
		<radialGradient id="SVGID_00000171689499686163893410000005350462902406775484_" cx="1162.3551" cy="173.4222" r="32.12" gradientTransform="matrix(0.47 0 0 0.69 -457.82 31.31)" gradientUnits="userSpaceOnUse">
		<stop  offset="0" style="stop-color:#FF6600"/>
		<stop  offset="0.5" style="stop-color:#FF4500"/>
		<stop  offset="0.7" style="stop-color:#FC4301"/>
		<stop  offset="0.82" style="stop-color:#F43F07"/>
		<stop  offset="0.92" style="stop-color:#E53812"/>
		<stop  offset="1" style="stop-color:#D4301F"/>
	</radialGradient>
	<path style="fill:url(#SVGID_00000171689499686163893410000005350462902406775484_);" d="M102.8,144.1c-0.5,10.1-7.2,13.8-15,13.8
		s-13.8-5.5-13.3-15.7c0.5-10.1,7.2-16.8,15-16.8S103.3,133.9,102.8,144.1z"/>
	<path class="st7" d="M128.1,165.1c-10.6,0-20.7,0.5-30.1,1.4c-1.6,0.2-2.6,1.8-2,3.2c5.2,12.3,17.6,21,32.1,21s26.8-8.6,32.1-21
		c0.6-1.5-0.4-3.1-2-3.2C148.8,165.6,138.7,165.1,128.1,165.1z"/>
	<path class="st8" d="M128.1,167.5c-10.6,0-20.7,0.5-30,1.5c-1.6,0.2-2.6,1.8-2,3.3c5.2,12.5,17.6,21.3,32,21.3s26.8-8.8,32-21.3
		c0.6-1.5-0.4-3.1-2-3.3C148.7,168,138.6,167.5,128.1,167.5L128.1,167.5z"/>
	
		<radialGradient id="SVGID_00000111162758833404389820000010694057165658696362_" cx="1243.5851" cy="-508.4764" r="113.26" gradientTransform="matrix(0.47 0 0 -0.31 -457.82 37.28)" gradientUnits="userSpaceOnUse">
		<stop  offset="0" style="stop-color:#172E35"/>
		<stop  offset="0.29" style="stop-color:#0E1C21"/>
		<stop  offset="0.73" style="stop-color:#030708"/>
		<stop  offset="1" style="stop-color:#000000"/>
	</radialGradient>
	<path style="fill:url(#SVGID_00000111162758833404389820000010694057165658696362_);" d="M128.1,166.2c-10.4,0-20.3,0.5-29.5,1.4
		c-1.6,0.2-2.6,1.8-2,3.2c5.2,12.3,17.3,21,31.5,21s26.3-8.6,31.5-21c0.6-1.5-0.4-3.1-2-3.2C148.4,166.8,138.5,166.2,128.1,166.2z"
		/>
	
		<radialGradient id="SVGID_00000115506751441978176340000013677520462892572331_" cx="1343.4751" cy="277.9019" r="99.42" gradientTransform="matrix(0.47 0 0 -0.47 -457.82 164.72)" gradientUnits="userSpaceOnUse">
		<stop  offset="0" style="stop-color:#FEFFFF"/>
		<stop  offset="0.4" style="stop-color:#FEFFFF"/>
		<stop  offset="0.51" style="stop-color:#F9FCFC"/>
		<stop  offset="0.62" style="stop-color:#EDF3F5"/>
		<stop  offset="0.7" style="stop-color:#DEE9EC"/>
		<stop  offset="0.72" style="stop-color:#D8E4E8"/>
		<stop  offset="0.76" style="stop-color:#CCD8DF"/>
		<stop  offset="0.8" style="stop-color:#C8D5DD"/>
		<stop  offset="0.83" style="stop-color:#CCD6DE"/>
		<stop  offset="0.85" style="stop-color:#D8DBE2"/>
		<stop  offset="0.88" style="stop-color:#EDE3E9"/>
		<stop  offset="0.9" style="stop-color:#FFEBEF"/>
	</radialGradient>
	<circle style="fill:url(#SVGID_00000115506751441978176340000013677520462892572331_);" cx="174.8" cy="55.5" r="21.2"/>
	
		<radialGradient id="SVGID_00000067943941069120041560000016533010558350408839_" cx="1302.0352" cy="177.5619" r="81.49" gradientTransform="matrix(0.47 0 0 -0.47 -457.82 168.5)" gradientUnits="userSpaceOnUse">
		<stop  offset="0.48" style="stop-color:#7A9299"/>
		<stop  offset="0.67" style="stop-color:#172E35"/>
		<stop  offset="0.75" style="stop-color:#000000"/>
		<stop  offset="0.82" style="stop-color:#172E35"/>
	</radialGradient>
	<path style="fill:url(#SVGID_00000067943941069120041560000016533010558350408839_);" d="M127.8,88c-2.5,0-4.6-1.1-4.6-2.7
		c0-19,15.4-34.4,34.4-34.4c2.5,0,4.6,2.1,4.6,4.6s-2.1,4.6-4.6,4.6c-13.9,0-25.2,11.3-25.2,25.2C132.4,87,130.3,88,127.8,88z"/>
	<path class="st12" d="M97.3,149.1c0,3.9-4.2,5.7-9.3,5.7s-9.3-1.8-9.3-5.7s4.2-7.1,9.3-7.1S97.3,145.1,97.3,149.1z"/>
	<path class="st12" d="M177.5,149.1c0,3.9-4.2,5.7-9.3,5.7s-9.3-1.8-9.3-5.7s4.2-7.1,9.3-7.1S177.5,145.1,177.5,149.1z"/>
	<ellipse class="st13" cx="94.4" cy="134.8" rx="3.3" ry="3.6"/>
	<ellipse class="st13" cx="173.3" cy="134.8" rx="3.3" ry="3.6"/>
</g>
</svg>
